<?xml version="1.0" standalone="no"?>
<!DOCTYPE svg PUBLIC "-//W3C//DTD SVG 20010904//EN"
 "http://www.w3.org/TR/2001/REC-SVG-20010904/DTD/svg10.dtd">
<svg version="1.0" xmlns="http://www.w3.org/2000/svg"
 width="171.000000pt" height="171.000000pt" viewBox="0 0 171.000000 171.000000"
 preserveAspectRatio="xMidYMid meet">

<g transform="translate(0.000000,171.000000) scale(0.100000,-0.100000)"
fill="#000000" stroke="none">
<path d="M760 1704 c-14 -2 -52 -9 -85 -15 -295 -53 -552 -292 -640 -594 -134
-464 148 -943 622 -1056 118 -28 321 -23 428 11 167 53 318 155 421 283 62 78
133 217 159 312 23 85 31 258 15 352 -64 396 -395 689 -799 707 -53 3 -107 3
-121 0z m274 -59 c33 -9 86 -26 118 -39 209 -85 383 -272 459 -493 31 -93 33
-105 34 -243 0 -110 -4 -161 -18 -210 -62 -226 -216 -414 -422 -516 -123 -61
-222 -84 -354 -84 -163 0 -289 34 -417 111 -423 256 -520 818 -207 1204 117
144 312 255 500 285 76 12 233 4 307 -15z"/>
<path d="M575 900 l-39 -40 41 -42 c36 -36 44 -40 58 -28 14 12 14 15 -1 31
-17 18 -9 19 274 19 285 0 292 0 292 20 0 20 -7 20 -292 20 -280 0 -291 1
-275 18 13 14 14 21 5 30 -17 17 -20 16 -63 -28z"/>
</g>
</svg>
